<?xml version="1.0"?>
<svg xmlns="http://www.w3.org/2000/svg" height="512px" viewBox="-6 0 395 395.94667" width="512px" class=""><g><path d="m307.671875 153.601562c0 84.828126-68.769531 153.597657-153.597656 153.597657-84.832031 0-153.601563-68.769531-153.601563-153.597657 0-84.832031 68.769532-153.601562 153.601563-153.601562 84.828125 0 153.597656 68.769531 153.597656 153.601562zm0 0" fill="#efefd2" data-original="#EFEFD2" class="" style="fill:#E2FFE2" data-old_color="#efefd2"/><path d="m201.859375 55.410156s-51.707031 42.25-51.707031 96.027344c0 51.707031 51.707031 96.027344 51.707031 96.027344s51.710937-44.320313 51.710937-96.027344c0-53.777344-51.710937-96.027344-51.710937-96.027344zm0 0" fill="#a9ba5a" data-original="#A9BA5A" class="" style="fill:#00AF80" data-old_color="#a9ba5a"/><path d="m201.859375 254.292969c-1.578125 0-3.164063-.546875-4.441406-1.644531-2.210938-1.890626-54.089844-46.984376-54.089844-101.210938 0-56.367188 52-99.503906 54.210937-101.3125 2.523438-2.054688 6.121094-2.054688 8.640626 0 2.214843 1.808594 54.214843 44.945312 54.214843 101.3125 0 54.222656-51.878906 99.316406-54.09375 101.210938-1.273437 1.097656-2.859375 1.644531-4.441406 1.644531zm0-189.722657c-12.003906 11.289063-44.878906 45.9375-44.878906 86.867188 0 39.222656 32.746093 74.84375 44.878906 86.695312 12.132813-11.847656 44.878906-47.472656 44.878906-86.695312 0-40.929688-32.871093-75.578125-44.878906-86.867188zm0 0" fill="#4c241d" data-original="#4C241D" class="active-path" style="fill:#374957" data-old_color="#4c241d"/><path d="m338.472656 112.019531s7.324219 66.371094-30.335937 104.761719c-36.210938 36.910156-104.164063 32.339844-104.164063 32.339844s-5.871094-67.851563 30.339844-104.761719c37.65625-38.390625 104.160156-32.339844 104.160156-32.339844zm0 0" fill="#a9ba5a" data-original="#A9BA5A" class="" style="fill:#00AF80" data-old_color="#a9ba5a"/><path d="m211.671875 256.148438c-4.664063 0-7.605469-.175782-8.15625-.21875-3.363281-.222657-6.054687-2.867188-6.34375-6.21875-.25-2.902344-5.707031-71.425782 32.269531-110.132813 39.472656-40.238281 106.792969-34.621094 109.652344-34.359375 3.234375.296875 5.804688 2.828125 6.164062 6.050781.316407 2.84375 7.21875 70.054688-32.25 110.289063-30.726562 31.332031-81.539062 34.589844-101.335937 34.589844zm-1.160156-13.691407h.367187c17.28125 0 65.113282-2.660156 92.382813-30.457031 28.660156-29.21875 29.464843-76.96875 28.796875-93.441406-16.4375-.378906-64.207032 1.359375-92.871094 30.582031-27.46875 27.996094-29.042969 76.363281-28.675781 93.316406zm0 0" fill="#4c241d" data-original="#4C241D" class="active-path" style="fill:#374957" data-old_color="#4c241d"/><path d="m65.25 112.019531s-7.324219 66.371094 30.335938 104.761719c36.210937 36.910156 104.160156 32.339844 104.160156 32.339844s5.875-67.851563-30.335938-104.761719c-37.660156-38.390625-104.160156-32.339844-104.160156-32.339844zm0 0" fill="#a9ba5a" data-original="#A9BA5A" class="" style="fill:#00AF80" data-old_color="#a9ba5a"/><path d="m192.046875 256.148438c-19.792969 0-70.601563-3.253907-101.332031-34.589844-39.476563-40.234375-32.566406-107.445313-32.253906-110.289063.359374-3.222656 2.933593-5.753906 6.164062-6.050781 2.855469-.257812 70.183594-5.882812 109.65625 34.359375 37.972656 38.707031 32.519531 107.230469 32.265625 110.132813-.285156 3.351562-2.980469 5.996093-6.339844 6.21875-.554687.039062-3.496093.21875-8.160156.21875zm-120.386719-137.589844c-.667968 16.472656.140625 64.226562 28.800782 93.441406 27.527343 28.0625 75.9375 30.554688 92.746093 30.464844.367188-16.949219-1.199219-65.324219-28.671875-93.324219-28.660156-29.214844-76.402344-30.949219-92.875-30.582031zm0 0" fill="#4c241d" data-original="#4C241D" class="active-path" style="fill:#374957" data-old_color="#4c241d"/><path d="m304.261719 389.121094h-204.800781c-39.589844 0-71.679688-32.09375-71.679688-71.679688 0-39.589844 32.089844-71.679687 71.679688-71.679687h204.800781c39.585937 0 71.679687 32.089843 71.679687 71.679687 0 39.585938-32.09375 71.679688-71.679687 71.679688zm0 0" fill="#fff" data-original="#FFF" class="" data-old_color="#fff" style="fill:#FFFFFF"/><g fill="#4c241d"><path d="m304.261719 395.945312h-204.800781c-43.289063 0-78.507813-35.214843-78.507813-78.503906 0-43.289062 35.21875-78.507812 78.507813-78.507812h204.800781c43.285156 0 78.503906 35.21875 78.503906 78.507812 0 43.289063-35.21875 78.503906-78.503906 78.503906zm-204.800781-143.359374c-35.761719 0-64.855469 29.09375-64.855469 64.855468 0 35.757813 29.09375 64.851563 64.855469 64.851563h204.800781c35.757812 0 64.851562-29.09375 64.851562-64.851563 0-35.761718-29.09375-64.855468-64.851562-64.855468zm0 0" data-original="#4C241D" class="active-path" style="fill:#374957" data-old_color="#4C241D"/><path d="m347.386719 326.351562c-3.773438 0-6.824219-3.058593-6.824219-6.828124 0-14.722657-9.921875-27.640626-24.128906-31.414063-3.648438-.96875-5.8125-4.707031-4.847656-8.351563.972656-3.640624 4.722656-5.804687 8.355468-4.84375 20.179688 5.359376 34.273438 23.703126 34.273438 44.609376 0 3.769531-3.054688 6.828124-6.828125 6.828124zm0 0" data-original="#4C241D" class="active-path" style="fill:#374957" data-old_color="#4C241D"/></g></g> </svg>
